<svg xmlns="http://www.w3.org/2000/svg" width="57.296" height="40.57" viewBox="0 0 57.296 40.57">
  <g id="Gruppe_1" data-name="Gruppe 1" transform="translate(0.5 0.5)">
    <path id="Vereinigungsmenge_1" data-name="Vereinigungsmenge 1" d="M44.784,39.57l-6.679-21.62h-.089L30.75,39.57h-.266l-7.025-23.9a4.828,4.828,0,0,0-1.044-1.781l-.008-.01a4.169,4.169,0,0,0-1.114-.669,2.559,2.559,0,0,1-.283-.1l-.025-.011a5.429,5.429,0,0,0-1.672-.245,4.636,4.636,0,0,0-2.449.649,4.417,4.417,0,0,0-1.654,1.768,5.453,5.453,0,0,0-.584,2.562,5.3,5.3,0,0,0,.348,1.987A4.438,4.438,0,0,0,16,21.355,9.414,9.414,0,0,0,17.61,22.6q.925.575,2.5,1.452A18.634,18.634,0,0,1,24.2,26.927a5.265,5.265,0,0,1,1.46,3.933,5.992,5.992,0,0,1-.787,2.944,5.277,5.277,0,0,1-2.247,2.036,13.025,13.025,0,0,1-4.367.943,2.625,2.625,0,0,1-.273-.015h-.03a18.454,18.454,0,0,1-7.5-1.632A16.943,16.943,0,0,1,4.735,31.1,17.63,17.63,0,0,1,1.2,25.372,18.384,18.384,0,0,1,0,18.823,18.942,18.942,0,0,1,9.258,2.533,17.805,17.805,0,0,1,18.517,0a25.865,25.865,0,0,1,6.573.919l2.45.683a6.259,6.259,0,0,0,1.2.141,1.945,1.945,0,0,0,1.225-.271,1.851,1.851,0,0,0,.471-.977h.377l-.329,8.293h-.4a7.418,7.418,0,0,0-2.391-4.311A12.061,12.061,0,0,0,23.228,1.9a15.4,15.4,0,0,0-4.712-.813A12.818,12.818,0,0,0,12.9,2.344,13.349,13.349,0,0,0,8.363,5.9a16.716,16.716,0,0,0-2.968,5.513A22.194,22.194,0,0,0,4.334,18.4a21.6,21.6,0,0,0,1.025,6.773A15.807,15.807,0,0,0,8.351,30.59a13.12,13.12,0,0,0,4.559,3.475,13.738,13.738,0,0,0,5.748,1.177,7.155,7.155,0,0,0,3.807-.726c.029-.022.056-.043.079-.064a2.953,2.953,0,0,0,.922-2.425,4.54,4.54,0,0,0-1.225-3.285,14.961,14.961,0,0,0-3.722-2.6q-1.719-.941-2.546-1.46a10.308,10.308,0,0,1-1.678-1.346,6.1,6.1,0,0,1-1.858-4.542,6.347,6.347,0,0,1,.892-3.227,6.665,6.665,0,0,1,2.531-2.473,7.371,7.371,0,0,1,3.714-.933,10.466,10.466,0,0,1,3.227.535,1.346,1.346,0,0,1,.356.132,6.908,6.908,0,0,1,2.327,2.188,7.391,7.391,0,0,1,.7,1.632L31.656,34.33h.071L37.66,16.654l-.248-.8a5.266,5.266,0,0,0-1.066-1.963,3,3,0,0,0-2.22-.879v-.3h8.367v.3q-1.422.018-1.839.728a2.631,2.631,0,0,0-.418,1.315,5.264,5.264,0,0,0,.266,1.6L45.957,34.33h.071l5.56-16.379a12.141,12.141,0,0,0,.454-1.545,6.938,6.938,0,0,0,.2-1.51q0-1.208-.525-1.51a4.066,4.066,0,0,0-1.7-.373v-.3H56.3v.3a3.715,3.715,0,0,0-1.421.595,4.647,4.647,0,0,0-1.226,1.439,15.955,15.955,0,0,0-1.262,2.9L45.05,39.57Z" transform="translate(0 0)" fill="#fff" stroke="rgba(0,0,0,0)" stroke-miterlimit="10" stroke-width="1"/>
  </g>
</svg>
